# xmcd
#
# Track frame offsets: 
#        150
#        23242
#        43227
#        66572
#        87187
#        109022
#        137892
#        158532
#        177182
#        199325
#        221662
#        253982
#
# Disc length: 3692 seconds
#
# Revision: 4
# Processed by: cddbd v1.5.2PL0 Copyright (c) Steve Scherf et al.
# Submitted via: ExactAudioCopy v0.95b4
#
DISCID=b30e6a0c
DTITLE=Michael Pickett - Conversation With the Blues
DYEAR=2000
DGENRE=Blues
TTITLE0=Big Train
TTITLE1=The River
TTITLE2=Love Don't Mean It
TTITLE3=When I Lay My Burden Down
TTITLE4=Look Out At The Weather
TTITLE5=Conversation With The Blues
TTITLE6=Cecil and Spadina
TTITLE7=It Don't Matter To Me
TTITLE8=Bad Love
TTITLE9=Junk Thang
TTITLE10=Mother Earth
TTITLE11=Night Comes
EXTD=ID3G: 0\n2000 Wooden Teeth Records, Toronto, Ontario, Canada\n(S
EXTD=weetest Gal Publishing)
EXTT0=
EXTT1=
EXTT2=
EXTT3=
EXTT4=
EXTT5=
EXTT6=
EXTT7=
EXTT8=
EXTT9=
EXTT10=
EXTT11=
PLAYORDER=
